<?xml version="1.0" encoding="UTF-8"?>
<svg xmlns="http://www.w3.org/2000/svg" xmlns:xlink="http://www.w3.org/1999/xlink" width="375pt" height="374.999991pt" viewBox="0 0 375 374.999991" version="1.2">
  <defs>
    <clipPath id="clip1">
      <path d="M 65.355469 121 L 196 121 L 196 337 L 65.355469 337 Z M 65.355469 121 " />
    </clipPath>
    <clipPath id="clip2">
      <path d="M 180 120 L 309.855469 120 L 309.855469 337 L 180 337 Z M 180 120 " />
    </clipPath>
    <clipPath id="clip3">
      <path d="M 65.355469 38 L 309.855469 38 L 309.855469 220 L 65.355469 220 Z M 65.355469 38 " />
    </clipPath>
  </defs>
  <g id="surface1">
    <g clip-path="url(#clip1)" clip-rule="nonzero">
      <path style="stroke:none;fill-rule:nonzero;fill:#d3edea;fill-opacity:1;" d="M 188.0625 336.703125 C 186.4375 336.703125 184.824219 336.191406 183.464844 335.199219 L 68.523438 250.78125 C 66.535156 249.320312 65.355469 247 65.355469 244.53125 L 65.355469 129.375 C 65.355469 126.46875 66.984375 123.808594 69.566406 122.476562 C 72.152344 121.144531 75.265625 121.367188 77.632812 123.0625 L 192.574219 205.125 C 194.613281 206.582031 195.824219 208.933594 195.824219 211.4375 L 195.824219 328.945312 C 195.824219 331.871094 194.179688 334.546875 191.566406 335.867188 C 190.460938 336.425781 189.257812 336.703125 188.0625 336.703125 Z M 80.882812 240.605469 L 180.300781 313.617188 L 180.300781 215.429688 L 80.882812 144.449219 Z M 80.882812 240.605469 " />
    </g>
    <g clip-path="url(#clip2)" clip-rule="nonzero">
      <path style="stroke:none;fill-rule:nonzero;fill:#d3edea;fill-opacity:1;" d="M 188.0625 336.703125 C 186.859375 336.703125 185.65625 336.425781 184.546875 335.859375 C 181.941406 334.535156 180.296875 331.863281 180.296875 328.941406 L 180.296875 211.4375 C 180.296875 208.949219 181.488281 206.617188 183.5 205.15625 L 297.53125 122.429688 C 299.886719 120.714844 303.019531 120.472656 305.613281 121.796875 C 308.214844 123.121094 309.855469 125.789062 309.855469 128.707031 L 309.855469 245.714844 C 309.855469 248.191406 308.671875 250.519531 306.667969 251.976562 L 192.640625 335.207031 C 191.285156 336.199219 189.679688 336.703125 188.0625 336.703125 Z M 195.828125 215.394531 L 195.828125 313.671875 L 294.328125 241.773438 L 294.328125 143.925781 Z M 195.828125 215.394531 " />
    </g>
    <g clip-path="url(#clip3)" clip-rule="nonzero">
      <path style="stroke:none;fill-rule:nonzero;fill:#d3edea;fill-opacity:1;" d="M 188.0625 219.195312 C 186.480469 219.195312 184.902344 218.714844 183.550781 217.75 L 68.605469 135.6875 C 66.574219 134.234375 65.363281 131.898438 65.355469 129.398438 C 65.347656 126.902344 66.539062 124.558594 68.5625 123.089844 L 183.507812 39.863281 C 186.234375 37.886719 189.917969 37.898438 192.640625 39.878906 L 306.671875 123.105469 C 308.679688 124.574219 309.863281 126.914062 309.855469 129.398438 C 309.847656 131.882812 308.648438 134.214844 306.628906 135.667969 L 192.597656 217.730469 C 191.246094 218.703125 189.65625 219.195312 188.0625 219.195312 Z M 86.414062 129.328125 L 188.046875 201.890625 L 288.871094 129.328125 L 188.042969 55.738281 Z M 86.414062 129.328125 " />
    </g>
  </g>
</svg>